<svg width="40" height="40" viewBox="0 0 40 40" fill="none" xmlns="http://www.w3.org/2000/svg">
<path fill-rule="evenodd" clip-rule="evenodd" d="M10 4C10 1.79086 11.7909 0 14 0H26C28.2091 0 30 1.79086 30 4V8H33.9794C33.9917 7.99989 34.0041 7.99989 34.0165 8H38C39.1046 8 40 8.89543 40 10C40 11.1046 39.1046 12 38 12H35.8622L34.1276 36.285C33.9781 38.3782 32.2363 40 30.1378 40H9.86224C7.76368 40 6.02192 38.3782 5.8724 36.285L4.13776 12H2C0.89543 12 0 11.1046 0 10C0 8.89543 0.89543 8 2 8H5.98349C5.9959 7.99989 6.00828 7.99989 6.02064 8H10V4ZM14 8H26V4H14V8ZM8.14795 12L9.86224 36H30.1378L31.852 12H8.14795ZM16 16C17.1046 16 18 16.8954 18 18V30C18 31.1046 17.1046 32 16 32C14.8954 32 14 31.1046 14 30V18C14 16.8954 14.8954 16 16 16ZM24 16C25.1046 16 26 16.8954 26 18V30C26 31.1046 25.1046 32 24 32C22.8954 32 22 31.1046 22 30V18C22 16.8954 22.8954 16 24 16Z" fill="#999999"/>
</svg>
